#!OML:ASF F:\VICON\USERDATA\INSTALL\rory3\rory3.ASF
:FULLY-SPECIFIED
:DEGREES
72
root 0.02128995580467702 17.79435260579088 27.766703986849322 -1.2909203919289642 2.3204437360829826 -0.22366608891665685
lfemur 12.676932170094727 -4.713494553602217 -22.959945814269876
ltibia 27.1969239694238
lfoot -2.1748277364200073 -6.5338308229136235
ltoes -18.514665126688463
rfemur -25.0731006294058 5.6728517295095635 22.37260791779035
rtibia 25.80736037232363
rfoot -1.7730929888841782 -5.240326413234829
rtoes 9.573344858292065
lowerback 9.065702578768347 -1.2771881434891381 -1.561253074007768
upperback 0.37941516418396076 -1.8204754697811527 2.4149389928978304
thorax -4.842940192222482 -0.846618950476306 3.707936446188235
lowerneck -16.59228723019003 -2.606457045144878 -2.7521636796411757
upperneck 20.27213868382704 -3.1935827448541905 1.4371551101428075
head 9.161192085104737 -1.5389411789944296 0.5724480185812283
lclavicle -1.9539968312645846e-15 9.053634118280571e-16
lhumerus -29.967584897564027 -0.6701974705964902 82.42602623600318
lradius 31.152137856350663
lwrist 6.8839627569874615
lhand -26.94032094500499 25.020963228433402
lfingers 7.12502
lthumb -0.4768131624826377 54.58717449690437
rclavicle -1.9522894497362827e-15 9.076482617401918e-16
rhumerus -30.643276060632836 -20.059126505844365 -77.46613656879953
rradius 21.633672254762374
rwrist 9.328911061094477
rhand -17.1613330703662 22.37053301156184
rfingers 7.12502
rthumb 9.010015477784904 -7.6190723140376075
73
root -0.046776188035727806 17.83884574816759 28.87981952541456 -1.250106080901386 1.4428425437775614 -0.4016348613573415
lfemur 9.541387512884999 -3.7873174329527393 -21.744953051088498
ltibia 34.86809769070105
lfoot -0.15155727135228947 -9.35086884662376
ltoes -19.747848725437876
rfemur -23.764980433134106 5.1712000895693 23.99743111096757
rtibia 27.806779079460952
rfoot -2.6043111018874887 -4.69410510093525
rtoes 10.30117791643669
lowerback 8.861112044337958 -1.0519943107660943 -0.9998003666048951
upperback 0.497063862510642 -1.4554518299312957 2.6523762249390606
thorax -4.858353943278401 -0.6947344983364274 3.345382626600472
lowerneck -16.45224906838182 -2.612398716137201 -2.6419321488324647
upperneck 20.293339409478126 -3.193445353581467 1.3170033606068934
head 9.153243451523833 -1.5417546933621258 0.5257027032118043
lclavicle -1.9528608280506574e-15 9.06340671813774e-16
lhumerus -30.578305825581538 -0.6746920603588338 82.43192566021123
lradius 30.849431204469106
lwrist 7.591480777995842
lhand -27.10570829519455 24.665879556358774
lfingers 7.12502
lthumb -0.6212075509930822 54.12975096892788
rclavicle -1.951413851743825e-15 9.084545407654777e-16
rhumerus -30.110207831436444 -19.14056565226359 -77.90475416125189
rradius 21.778803901273818
rwrist 9.151217681953407
rhand -17.08872788958931 22.16485481654527
rfingers 7.12502
rthumb 9.037569793555079 -8.00109731853696
74
root -0.13719774457924944 17.92744933366229 29.679087292249548 -1.9391911837141051 1.8527096145781212 -2.018079932448554
lfemur 4.85626028728559 -3.180573156370423 -19.017071830551895
ltibia 43.25373427060302
lfoot 3.577270079638713 -9.239519006744047
ltoes -15.550089493895763
rfemur -21.454273110490274 5.725005143306505 25.99396000375044
rtibia 28.556611587460523
rfoot -3.339719926654359 -4.6959363397728815
rtoes 10.331463155546023
lowerback 9.155836093450937 -0.9596836257583622 0.20880202742688692
upperback 0.5196454661910068 -1.1607750160403145 2.896308422678733
thorax -4.987928622367333 -0.565425014906821 2.9306923533500298
lowerneck -16.294633412054885 -2.6459915829510066 -2.534415768136098
upperneck 20.299577173791103 -3.2420289834503757 1.2399482558608603
head 9.133703126593465 -1.5622734056458847 0.48907030383806416
lclavicle -1.954350933966946e-15 9.052385309455361e-16
lhumerus -31.184949994955158 -0.37896996826944496 82.37047959344036
lradius 30.6276980238951
lwrist 8.257211775530367
lhand -27.268142289762963 24.152292387537546
lfingers 7.12502
lthumb -0.736173201891206 53.648419007865606
rclavicle -1.95138488574086e-15 9.084808810915247e-16
rhumerus -29.475985045827926 -18.026173583032325 -78.39378866026513
rradius 22.09985041194062
rwrist 8.70945297815906
rhand -17.068723101191747 21.939085935033855
rfingers 7.12502
rthumb 9.02347714128445 -8.260942126522693
75
root -0.22125891363996691 18.00539743919378 30.302857845546207 -2.2232635302853927 1.5741675989168327 -3.550339204628343
lfemur -0.7415393922221281 -2.124369830010089 -16.571778693201104
ltibia 51.018320149826266
lfoot 1.9556572675317865 -8.465842768831555
ltoes -16.76398912476802
rfemur -18.799992414194442 6.40785116622938 27.929935567010553
rtibia 28.475463105400905
rfoot -4.009714307989586 -4.877619954309598
rtoes 10.360308888605083
lowerback 9.405168556116678 -0.6305756795215675 1.5585264282316063
upperback 0.654859368652543 -0.5111820733831764 3.02748769555937
thorax -5.017798989555343 -0.2603900136828369 2.3229459363450697
lowerneck -16.15428078190178 -2.699431150422155 -2.4462145017085475
upperneck 20.307666577391743 -3.3266845386454884 1.1993999705494576
head 9.120307015146482 -1.5965575285220415 0.46046943090693915
lclavicle -1.9566600732987537e-15 9.031227222061088e-16
lhumerus -31.920330912023104 -0.2142800398720539 82.2982607082899
lradius 30.559617278887966
lwrist 8.796536309535822
lhand -27.43090743374056 23.617919738305787
lfingers 7.12502
lthumb -0.8273918605063952 53.28002625850483
rclavicle -1.9514780995240966e-15 9.083949766097821e-16
rhumerus -28.93278021458149 -17.003341598475092 -79.02172515598807
rradius 22.769436621296453
rwrist 7.607304034974241
rhand -17.126562306260094 21.6105993454888
rfingers 7.12502
rthumb 8.929024824790503 -8.528733406616109
